HIERARCHY
ROOT hip
{
	OFFSET 0.000000 0.000000 0.000000 
	CHANNELS 6 Xposition Yposition Zposition Xrotation Zrotation Yrotation
	JOINT abdomen
	{
		OFFSET 0.000000 3.402643 0.000000 
		CHANNELS 3 Xrotation Zrotation Yrotation
		JOINT chest
		{
			OFFSET 0.000000 8.438565 -0.680529 
			CHANNELS 3 Xrotation Zrotation Yrotation
			JOINT neck
			{
				OFFSET 0.000000 10.207942 -0.272212 
				CHANNELS 3 Xrotation Zrotation Yrotation
				JOINT head
				{
					OFFSET 0.000000 3.130431 0.000000 
					CHANNELS 3 Xrotation Zrotation Yrotation
					End Site
					{
						OFFSET 0.000000 3.130435 0.000000 
					}
				}
			}
			JOINT lCollar
			{
				OFFSET 3.470700 6.669187 -0.816635 
				CHANNELS 3 Yrotation Zrotation Xrotation
				JOINT lShldr
				{
					OFFSET 3.198488 0.000000 0.000000 
					CHANNELS 3 Zrotation Yrotation Xrotation
					JOINT lForeArm
					{
						OFFSET 10.139888 0.000000 0.000000 
						CHANNELS 3 Yrotation Zrotation Xrotation
						JOINT lHand
						{
							OFFSET 8.370511 0.000000 0.000000 
							CHANNELS 3 Zrotation Yrotation Xrotation
							End Site
							{
								OFFSET 4.083176 0.000000 0.000000 
							}
						}
					}
				}
			}
			JOINT rCollar
			{
				OFFSET -3.470700 6.669187 -0.816635 
				CHANNELS 3 Yrotation Zrotation Xrotation
				JOINT rShldr
				{
					OFFSET -3.198488 0.000000 0.000000 
					CHANNELS 3 Zrotation Yrotation Xrotation
					JOINT rForeArm
					{
						OFFSET -10.139888 0.000000 0.000000 
						CHANNELS 3 Yrotation Zrotation Xrotation
						JOINT rHand
						{
							OFFSET -8.370511 0.000000 0.000000 
							CHANNELS 3 Zrotation Yrotation Xrotation
							End Site
							{
								OFFSET -4.083176 0.000000 0.000000 
							}
						}
					}
				}
			}
		}
	}
	JOINT lThigh
	{
		OFFSET 5.308129 -1.633274 1.361059 
		CHANNELS 3 Xrotation Zrotation Yrotation
		JOINT lShin
		{
			OFFSET -2.041588 -20.007561 0.000000 
			CHANNELS 3 Xrotation Zrotation Yrotation
			JOINT lFoot
			{
				OFFSET 0.000000 -19.190928 -1.224953 
				CHANNELS 3 Xrotation Yrotation Zrotation
				End Site
				{
					OFFSET 0.000000 -2.449906 4.627600 
				}
			}
		}
	}
	JOINT rThigh
	{
		OFFSET -5.308129 -1.633274 1.361059 
		CHANNELS 3 Xrotation Zrotation Yrotation
		JOINT rShin
		{
			OFFSET 2.041588 -20.007561 0.000000 
			CHANNELS 3 Xrotation Zrotation Yrotation
			JOINT rFoot
			{
				OFFSET 0.000000 -19.190928 -1.224953 
				CHANNELS 3 Xrotation Yrotation Zrotation
				End Site
				{
					OFFSET 0.000000 -2.449906 4.627600 
				}
			}
		}
	}
}
MOTION
Frames: 9
Frame Time: 0.016667
-0.618976 29.290247 -17.482256 -9.736500 -9.952477 3.499970 31.932808 23.447245 -2.794430 3.871613 -2.743922 1.572839 -4.882908 -0.633466 0.056336 8.131217 -6.497483 10.694093 -18.616911 -16.012640 -0.856038 -56.346684 2.761061 -13.448136 -59.742626 -5.000000 3.306274 13.801476 -10.363052 -45.000000 19.064350 9.628243 -0.501182 58.229069 8.853708 2.965826 79.397606 5.000000 6.606122 11.919692 -22.218845 -22.934666 -79.464310 12.247271 -19.101744 116.669724 3.496078 -6.298314 -27.479879 15.442052 -4.511043 8.627121 7.434016 -11.824349 106.269943 -2.530125 7.251207 -17.310972 -25.715670 3.591689 
-0.623947 29.282473 -17.507429 -9.591928 -10.009263 3.658923 31.743748 23.574430 -2.969408 3.804331 -2.695104 1.592386 -4.755871 -0.536909 0.041727 8.389331 -6.496439 10.742597 -18.683603 -15.905361 -0.850496 -56.537811 2.783610 -13.400927 -59.661503 -5.000000 3.229534 14.329764 -10.259527 -45.000000 19.113703 9.686758 -0.504214 58.125614 8.846010 3.095871 79.442726 5.000000 6.597740 12.037340 -22.294859 -23.073444 -79.742729 12.148881 -19.115248 116.611534 3.494985 -6.287364 -27.441702 15.325261 -4.387371 8.431853 7.492371 -12.018337 106.282417 -2.519547 7.188556 -17.099941 -25.756792 3.682354 
-0.625360 29.277390 -17.526693 -9.477851 -10.037172 3.777712 31.578676 23.671335 -3.124754 3.756323 -2.665815 1.582633 -4.648412 -0.478975 0.032880 8.567288 -6.467029 10.771705 -18.719284 -15.859732 -0.836411 -56.646408 2.818233 -13.390124 -59.594112 -5.000000 3.217534 14.768758 -10.115272 -45.000000 19.162968 9.735519 -0.506739 58.047894 8.828355 3.177257 79.479370 5.000000 6.581497 12.129985 -22.382557 -23.169596 -79.949394 12.060604 -19.113688 116.583710 3.485465 -6.254541 -27.354223 15.226707 -4.271918 8.288815 7.526259 -12.170367 106.322731 -2.510013 7.164575 -16.987400 -25.803421 3.728227 
-0.623128 29.275248 -17.539743 -9.392292 -10.036379 3.846722 31.463594 23.740553 -3.232164 3.736459 -2.656044 1.572857 -4.550803 -0.429235 0.035313 8.658270 -6.399873 10.770617 -18.738815 -15.859732 -0.836410 -56.692989 2.873575 -13.419733 -59.531929 -5.000000 3.256268 15.126772 -9.937431 -45.000000 19.202291 9.764775 -0.508254 57.984612 8.809216 3.203491 79.491913 5.000000 6.577904 12.189329 -22.475271 -23.206341 -80.065147 11.992532 -19.113844 116.585594 3.466104 -6.218881 -27.349661 15.158669 -4.217074 8.168550 7.512042 -12.276027 106.351418 -2.519267 7.172761 -16.876236 -25.872648 3.756722 
-0.617076 29.274483 -17.547651 -9.336031 -10.035570 3.917435 31.371841 23.815157 -3.320521 3.716927 -2.656044 1.553326 -4.472657 -0.390612 0.029469 8.724208 -6.361499 10.769534 -18.768263 -15.869482 -0.836913 -56.703590 2.932227 -13.474380 -59.497921 -5.000000 3.303378 15.466042 -9.719217 -45.000000 19.241533 9.784280 -0.509264 57.929321 8.787666 3.209596 79.514076 5.000000 6.567193 12.225191 -22.566683 -23.231440 -80.161583 11.934014 -19.130089 116.567848 3.455430 -6.178643 -27.354801 15.071335 -4.194795 8.104129 7.507835 -12.374126 106.371017 -2.529075 7.160969 -16.788605 -25.945101 3.768505 
-0.607152 29.274519 -17.548189 -9.396352 -10.035454 3.927051 31.430571 23.855169 -3.344214 3.756203 -2.675580 1.514273 -4.482401 -0.342333 0.022106 8.723463 -6.371298 10.759830 -18.798454 -15.927991 -0.839927 -56.580540 3.018713 -13.618896 -59.622757 -5.000000 3.385105 15.697929 -9.328292 -45.000000 19.231590 9.764775 -0.508254 57.950127 8.786615 3.122357 79.480499 5.000000 6.630900 12.156568 -22.560570 -23.230158 -80.081528 11.895570 -19.183405 116.563187 3.397329 -6.088279 -27.387272 14.998809 -4.288004 8.160414 7.494834 -12.407548 106.400894 -2.519773 7.155215 -16.818222 -25.984056 3.738612 
-0.592337 29.276060 -17.545372 -9.466441 -10.035336 3.936666 31.539198 23.893932 -3.327865 3.785259 -2.695109 1.494740 -4.511735 -0.302250 0.025976 8.697690 -6.409881 10.751209 -18.838566 -15.996254 -0.846134 -56.422100 3.109559 -13.788432 -59.786037 -5.000000 3.466962 15.902461 -8.902957 -45.000000 19.221476 9.725767 -0.506234 57.979298 8.788314 3.021761 79.443848 5.000000 6.693655 12.064349 -22.553230 -23.220955 -79.960968 11.856837 -19.225605 116.558281 3.357885 -5.989498 -27.429867 14.955264 -4.359170 8.265691 7.452878 -12.419078 106.420410 -2.519764 7.156016 -16.877632 -25.953552 3.743318 
-0.571828 29.279938 -17.547123 -9.612407 -9.987087 3.896506 31.765568 23.900244 -3.267549 3.875358 -2.743967 1.426445 -4.619144 -0.273282 0.021594 8.526772 -6.486635 10.752299 -18.852659 -16.100365 -0.860553 -56.112690 3.203941 -13.984029 -60.154854 -5.000000 3.540793 16.047722 -8.258161 -45.000000 19.222521 9.664040 -0.512293 58.050350 8.842437 2.905413 79.459396 5.000000 6.697296 11.877295 -22.457893 -23.133617 -79.808769 11.846513 -19.279047 116.543343 3.290077 -5.923211 -27.390705 14.849299 -4.507599 8.397276 7.361718 -12.425632 106.489494 -2.529631 7.127233 -16.907885 -25.998573 3.732536 
-0.545988 29.286444 -17.550482 -9.809258 -9.900194 3.825811 32.143036 23.878469 -3.142852 4.006633 -2.831907 1.308903 -4.814455 -0.263627 0.020133 8.208122 -6.620952 10.755628 -18.835594 -16.256392 -0.868600 -55.651188 3.282414 -14.209044 -60.739296 -5.000000 3.600052 16.113050 -7.379931 -45.000000 19.231403 9.566515 -0.507243 58.142178 8.958594 2.765610 79.518120 5.000000 6.631670 11.602024 -22.271986 -22.964008 -79.547333 11.846069 -19.230312 116.499435 3.251455 -5.821944 -27.347311 14.781689 -4.628837 8.591684 7.214153 -12.382421 106.570122 -2.510430 7.079593 -17.058226 -26.068071 3.646335 
